<?xml version="1.0" standalone="no"?><!DOCTYPE svg PUBLIC "-//W3C//DTD SVG 1.1//EN" "http://www.w3.org/Graphics/SVG/1.1/DTD/svg11.dtd"><svg t="1497241912185" class="icon" style="" viewBox="0 0 1024 1024" version="1.1" xmlns="http://www.w3.org/2000/svg" p-id="1922" xmlns:xlink="http://www.w3.org/1999/xlink" width="200" height="200"><defs><style type="text/css"></style></defs><path d="M233 315.2c0-31 25.2-58.4 56.4-61l527.2-45.8c1 0 1.8 0 2.8-0.2l-55.8-55-1.6-1.6c-0.2-0.2-0.6-0.4-0.8-0.6s-0.6-0.4-0.8-0.6-0.6-0.4-0.8-0.6c-0.4-0.4-1-0.6-1.6-1-0.2-0.2-0.4-0.2-0.6-0.4-0.2 0-0.2-0.2-0.4-0.2-0.8-0.4-1.6-1-2.4-1.4-0.2 0-0.2-0.2-0.4-0.2h-0.2c-0.6-0.4-1.2-0.6-1.8-0.8-0.4-0.2-1-0.4-1.4-0.6-0.2 0-0.4-0.2-0.6-0.2-0.2 0-0.4-0.2-0.4-0.2-0.8-0.2-1.6-0.6-2.4-0.8-0.2 0-0.4 0-0.4-0.2-0.2 0-0.4 0-0.6-0.2-0.6-0.2-1-0.2-1.6-0.4-0.6-0.2-1.2-0.2-1.8-0.2h-0.8c-1-0.2-2-0.2-3-0.2H736c-0.6 0-1.2 0-1.8 0.2L207 188.8c-0.8 0-1.4 0.2-2.2 0.2-0.4 0-1 0.2-1.4 0.2-0.4 0-0.6 0.2-1 0.2-1.2 0.2-2.4 0.6-3.4 0.8-1.2 0.4-2.2 0.6-3.2 1-0.6 0.2-1.8 0.8-2.4 1l-2.4 1.2c-0.2 0-0.4 0.2-0.6 0.2-1.8 1-3.6 2-5.2 3.4 0 0-0.2 0-0.2 0.2-0.6 0.4-1.2 1-2 1.6-0.4 0.2-0.6 0.6-1 0.8l-0.2 0.2c-0.2 0.2-0.4 0.4-0.8 0.6-0.4 0.4-1 0.8-1.4 1.2-0.2 0.4-0.6 0.6-0.8 1l-0.2 0.2-0.8 0.8c-0.4 0.6-1 1-1.4 1.6-0.2 0.2-0.4 0.4-0.6 0.8-0.4 0.6-0.8 1-1.2 1.6-0.2 0.4-0.6 0.8-0.8 1.2 0 0 0 0.2-0.2 0.2-0.2 0.2-0.2 0.4-0.4 0.6-0.4 0.6-0.8 1.4-1.2 2 0 0.2-0.2 0.2-0.2 0.4-0.2 0.2-0.2 0.4-0.4 0.6-0.2 0.4-0.4 0.6-0.6 1-0.4 0.6-0.6 1.4-1 2v0.2c0 0.2-0.2 0.4-0.2 0.6-0.2 0.4-0.4 0.8-0.6 1.4-0.2 0.4-0.2 0.8-0.4 1.4-0.2 0.4-0.2 0.8-0.4 1-0.2 0.6-0.4 1.4-0.6 2.2-0.2 0.4-0.2 0.8-0.2 1.2v0.2c0 0.4-0.2 0.8-0.2 1.2-0.2 1-0.2 1.8-0.4 2.8s-0.2 2.2-0.2 3.2v0.8l-0.4 131.4c0 0.6 0.2 1.2 0.8 1.6l23.8 23.4c1.4 1.4 0.6 3.8-1.4 4L168 394c-1.2 0.2-2.2 1.2-2.2 2.4l0.8 197.6c0 0.6 0.2 1.2 0.8 1.6l22.8 23.8c1.4 1.4 0.6 3.8-1.4 4l-20.2 1.8c-1.2 0.2-2.2 1.2-2.2 2.4l-0.2 134.4c0 1 0 2.2 0.2 3.2v0.2c0 0.6 0.2 1.2 0.2 2 0 0.6 0.2 1.2 0.2 1.8 0 0.6 0.2 1 0.4 1.6 0.2 0.6 0.4 1.4 0.6 2 0 0.2 0 0.2 0.2 0.4 0.4 1.4 0.8 2.6 1.4 4 0 0 0 0.2 0.2 0.2 0.2 0.6 0.6 1.4 1 2l0.6 1.2 1.2 1.8c0.2 0.4 0.4 0.8 0.6 1 0.4 0.6 0.8 1.2 1.4 1.8 0.2 0.4 0.4 0.6 0.8 1 0.8 0.8 1.4 1.6 2.2 2.4l51.6 51c1.4 1.4 4 0.4 4-1.6V315.2z m161.4 382v29.2c0 0.4 0 1 0.4 1.4 0.2 0.2 0.6 0.4 1.2 0.4h0.4l312.2-27.4c2.6-0.2 5.2-3 5.2-5.6v-58.6l-0.8-200.8v-16h0.4l0.4-14v-25.2c0-0.4 0-1-0.4-1.4-0.2-0.2-0.6-0.4-1.2-0.4h-0.4l-62.8 5.4c-1.2 0.2-2.2 1.2-2.2 2.4l0.6 166c0 0.6 0.2 1.2 0.8 1.6l23 22.8c1.4 1.4 0.6 3.8-1.4 4l-20.2 1.8c-1.2 0.2-2.2 1.2-2.2 2.4v27.2c0 0.6 0 1.2-0.2 1.8 0 0.6-0.2 1-0.2 1.4s-0.2 0.8-0.2 1.2-0.2 0.8-0.4 1.2v0.2c-0.2 0.4-0.2 0.8-0.4 1.2s-0.2 0.8-0.4 1.2c0 0 0 0.2-0.2 0.4-0.2 0.4-0.2 0.6-0.4 1-0.2 0.2-0.2 0.6-0.4 0.8-0.2 0.4-0.4 0.6-0.6 1-0.2 0.4-0.4 0.8-0.6 1-0.2 0.4-0.6 0.8-0.8 1-0.2 0.4-0.6 0.8-1 1-0.2 0.4-0.6 0.8-1 1l-0.2 0.2c-0.4 0.4-0.8 0.8-1.2 1-0.4 0.4-1 0.8-1.6 1.4 0 0-0.2 0-0.2 0.2-0.8 0.6-1.6 1-2.4 1.4-0.2 0-0.4 0.2-0.4 0.2-1.4 0.8-2.8 1.4-4.4 1.8-1 0.4-2.2 0.6-3.4 0.8-0.4 0-0.6 0-1 0.2l-229.6 20c-1.2 0.2-2.2 1.2-2.2 2.4v26l0.4 13.8z m-103.6-425.6c-22.2 2-40.4 21.4-40.4 43.6l-0.4 129.8c0 1.4 1.2 2.4 2.6 2.4l122-10.6c1.2-0.2 2.2-1.2 2.2-2.4v-23c0-11.6 9.6-21.8 21-22.8L710 361.4h2c10.8 0 19 8.2 19 19.2v22.6c0 1.4 1.2 2.4 2.6 2.4l122-10.6c1.2-0.2 2.2-1.2 2.2-2.4l0.4-130.2c0-21-16.2-36.8-36.8-36.8-1.2 0-2.2 0-3.4 0.2l-527.2 45.8z m82.8 192.6l-122 10.6c-1.2 0.2-2.2 1.2-2.2 2.4l-2 201.8c0 1.4 1.2 2.4 2.6 2.4l122-10.6c1.2-0.2 2.2-1.2 2.2-2.4l2-201.8c0-1.4-1.2-2.6-2.6-2.4z m356.8-29.2l0.8 201.8c0 1.4 1.2 2.4 2.6 2.4l122-10.6c1.2-0.2 2.2-1.2 2.2-2.4l-0.8-201.8c0-1.4-1.2-2.4-2.6-2.4l-122 10.6c-1.2 0.2-2.2 1.2-2.2 2.4z m0.6 260.2c0 11.6-9.6 21.8-21 22.8l-312.2 27.4h-2c-10.6 0-19-8.2-19-19.2v-26.6c0-1.4-1.2-2.4-2.6-2.4l-122 10.8c-1.2 0.2-2.2 1.2-2.2 2.4l-0.2 134.2c0 21 16 36.8 36.6 36.8 1.2 0 2.4 0 3.6-0.2l527.2-46.2c22.2-2 40.2-21.6 40.4-43.6l0.2-133.8c0-1.4-1.2-2.4-2.6-2.4l-122 10.6c-1.2 0.2-2.2 1.2-2.2 2.4v27z" fill="#e6e6e6" p-id="1923"></path></svg>